PathFileType	4	(X/Y/Z)	C:\Users\chris\Documents\GitHub\baseballds\vids\pitch5_Sports2D\pitch5_Sports2D_m_person04.trc
DataRate	CameraRate	NumFrames	NumMarkers	Units	OrigDataRate	OrigDataStartFrame	OrigNumFrames
30	30	9	22	m	30	18	149
Frame#	Time	Hip			RHip			RKnee			RAnkle			RBigToe			RSmallToe			RHeel			LHip			LKnee			LAnkle			LBigToe			LSmallToe			LHeel			Neck			Head			Nose			RShoulder			RElbow			RWrist			LShoulder			LElbow			LWrist		
		X1	Y1	Z1	X2	Y2	Z2	X3	Y3	Z3	X4	Y4	Z4	X5	Y5	Z5	X6	Y6	Z6	X7	Y7	Z7	X8	Y8	Z8	X9	Y9	Z9	X10	Y10	Z10	X11	Y11	Z11	X12	Y12	Z12	X13	Y13	Z13	X14	Y14	Z14	X15	Y15	Z15	X16	Y16	Z16	X17	Y17	Z17	X18	Y18	Z18	X19	Y19	Z19	X20	Y20	Z20	X21	Y21	Z21	X22	Y22	Z22
18	0.6	2.616252210653852	1.3563370861688449	0.0	2.6088302974234256	1.355831434741924	0.0	2.609848478724222	1.3323953224995273	0.0	2.6114461122885393	1.3102024309533575	0.0	2.6160945926429804	1.3069337514596857	0.0	2.6114648842122605	1.3048204416035476	0.0	2.611919248861766	1.3078358923304194	0.0	2.622896271874195	1.3550330221634401	0.0	2.6255780832472566	1.333501599302613	0.0	2.6279910247726694	1.3122673313315592	0.0	2.6316612157887254	1.3068408962582443	0.0	2.6311523196754796	1.3130862570173905	0.0	2.6248813345347504	1.3096504547072154	0.0	2.628581417466153	1.3934501742312333	0.0	2.632393501301172	1.4103708249685152	0.0	2.6331873329642694	1.3991119366529514	0.0	2.618221687818634	1.3909418371944102	0.0	2.608776938707767	1.3756027666086312	0.0	2.6476703280153187	1.386946835938489	0.0	2.6376364648461084	1.3887322547689576	0.0	2.6360398095588056	1.375185931933392	0.0	2.647778539318013	1.3687498550762174	0.0
19	0.6333333333333333	2.6162678484487354	1.356310999764076	0.0	2.6088538905177865	1.355818624095094	0.0	2.609832088798367	1.3323792636334608	0.0	2.6114452136932726	1.310193722452375	0.0	2.616029874285328	1.3068905473096428	0.0	2.6113928079836266	1.3047757581214057	0.0	2.611919409689146	1.3078041130209672	0.0	2.6229036146460785	1.3550285108587257	0.0	2.625560047593805	1.33348393993948	0.0	2.6279891189448357	1.3122701341941816	0.0	2.631650564113583	1.3068147707518416	0.0	2.6311458104917755	1.3131324641323607	0.0	2.6248634773822572	1.3096302586248028	0.0	2.6285870714018302	1.3933966754194322	0.0	2.6322917338580676	1.4103147333161077	0.0	2.633119535974483	1.3990448358810652	0.0	2.6181381529006873	1.3908600463023848	0.0	2.608320804047102	1.375351831251384	0.0	2.6476585602651324	1.3869494318797693	0.0	2.6377084500847965	1.3886890437422446	0.0	2.635958080184227	1.3750790755459483	0.0	2.6476358540652782	1.3685032866633384	0.0
20	0.6666666666666666	2.6162626465967	1.3564224468832742	0.0	2.6088467231031878	1.3559128212868505	0.0	2.609867597976119	1.3324848348621487	0.0	2.611431596295704	1.3102892712697094	0.0	2.6161009062780423	1.3070308809946063	0.0	2.611473207092684	1.3049213852807275	0.0	2.6118956584790958	1.3079303680823497	0.0	2.6229098337559105	1.3551119882128724	0.0	2.6255945333161748	1.33358180876402	0.0	2.6279828874984696	1.3123424188337225	0.0	2.6316405205617523	1.3069301303034204	0.0	2.631142951715386	1.3131404316283142	0.0	2.62487433769667	1.3097350744924465	0.0	2.628577031818552	1.393552043841537	0.0	2.6324090396518653	1.4104777900153918	0.0	2.633209760873562	1.3992241068713016	0.0	2.6182674387919453	1.3910401827584835	0.0	2.6089886885937346	1.3757467120283573	0.0	2.6476594023875584	1.386948805139725	0.0	2.6375929004382983	1.3888289031367609	0.0	2.6360664376319254	1.375308322439348	0.0	2.6478099099985135	1.3689091746749888	0.0
21	0.7	2.6162579583566585	1.3564676688563955	0.0	2.6088395545416834	1.3559488835126006	0.0	2.609883891618169	1.332525830462047	0.0	2.6114268270383514	1.3103247950944226	0.0	2.6161401105260387	1.3070893620615307	0.0	2.611517144152731	1.3049820841857074	0.0	2.6118864961945727	1.3079815333984155	0.0	2.622911217195743	1.3551425618744983	0.0	2.625610811850485	1.3336201848349967	0.0	2.6279807785855116	1.312367144781451	0.0	2.6316385619335914	1.306976365130699	0.0	2.631143124488032	1.3131322716946303	0.0	2.6248820783693736	1.3097762224755236	0.0	2.628572464028054	1.3936186770759806	0.0	2.6324737878231854	1.4105471227115118	0.0	2.633257559995421	1.399301648175466	0.0	2.6183311186320277	1.3911219311490466	0.0	2.609324566346302	1.3759408995330222	0.0	2.6476608547271065	1.3869467239857307	0.0	2.6375364353176707	1.388887579262716	0.0	2.6361232470232037	1.3754108911815754	0.0	2.6479012411499703	1.369107107499775	0.0
22	0.7333333333333333	2.6162700538358425	1.3564209025088634	0.0	2.6088518218217494	1.3559010239817577	0.0	2.609895979293163	1.3324763696779147	0.0	2.611440819867344	1.3102733988565516	0.0	2.6161419223372318	1.307033254124744	0.0	2.611520408751263	1.3049305425549058	0.0	2.6119017494459653	1.3079285249284869	0.0	2.6229244239473624	1.3550962183490285	0.0	2.625619598033317	1.333569759505511	0.0	2.627998156131893	1.3123156281114818	0.0	2.6316484677146916	1.3069233992182694	0.0	2.631158516082388	1.313071498932218	0.0	2.6249091831425626	1.3097233981935492	0.0	2.6285816524504497	1.3935702949254627	0.0	2.6324940113148694	1.4104950559590161	0.0	2.6332708105935945	1.3992485626155855	0.0	2.618330672378363	1.391076865046633	0.0	2.6093244428005486	1.3759011113551718	0.0	2.647660866204898	1.3869456251077952	0.0	2.637543254549506	1.3888398018557724	0.0	2.636125692941933	1.375365477956568	0.0	2.6479006176301585	1.369100586118268	0.0
23	0.7666666666666666	2.6162981019537983	1.3563216186463285	0.0	2.608882748684797	1.35580202894743	0.0	2.6099220165896218	1.3323730763260277	0.0	2.6114711812223512	1.3101686011284046	0.0	2.616135797848195	1.306915639527684	0.0	2.6115176619477	1.3048233502904227	0.0	2.611937385445673	1.3078186039315314	0.0	2.6229526178190508	1.3550010855708539	0.0	2.6256376118304576	1.33346422559175	0.0	2.6280378682337644	1.3122113355072826	0.0	2.6316705602591006	1.3068129160851534	0.0	2.631192270757316	1.3129550886531485	0.0	2.6249662700024006	1.3096140329546206	0.0	2.6286014844894	1.3934654244174625	0.0	2.6325176445713594	1.4103856163971389	0.0	2.633285320366035	1.3991351713443256	0.0	2.618322873642428	1.3909729714992416	0.0	2.609272210794307	1.3757882397954284	0.0	2.647665846190872	1.3869516219824571	0.0	2.6375646940351283	1.3887387525283705	0.0	2.636116609885545	1.3752717693086376	0.0	2.6478866914470736	1.3690607864856839	0.0
24	0.8	2.6162834458937803	1.3563687710936	0.0	2.6088699264829414	1.3558529719023167	0.0	2.60990950728322	1.332423685861307	0.0	2.6114585939376207	1.310225103096802	0.0	2.616128544277061	1.3069785100495768	0.0	2.6115106270538235	1.3048820538860482	0.0	2.6119293589372443	1.3078778089476488	0.0	2.6229339037060346	1.355049982330576	0.0	2.6256277946460758	1.33351735730134	0.0	2.6280246914683683	1.312268597151377	0.0	2.6316666042355523	1.3068703663587895	0.0	2.6311793421889926	1.3130306469233453	0.0	2.62493907380755	1.309672220616324	0.0	2.6285908395356703	1.39351406092769	0.0	2.632478443377588	1.4104444532352522	0.0	2.6332562009629874	1.399193513046944	0.0	2.618322369114605	1.3910132578894265	0.0	2.609245155415319	1.375815589345617	0.0	2.6476794506800565	1.386967678383483	0.0	2.637560287849474	1.3887899362817353	0.0	2.636101278343676	1.3753349958570855	0.0	2.6478910522051886	1.3690508773174785	0.0
25	0.8333333333333334	2.6161140671029077	1.3569201235859243	0.0	2.6086902816044013	1.3564178380774863	0.0	2.6097360383898036	1.3330050426968212	0.0	2.6112843668800463	1.3108298874647153	0.0	2.616113806840279	1.3076409773221682	0.0	2.611474662595188	1.3054806705835593	0.0	2.61174101342041	1.3085001530213032	0.0	2.622750928873838	1.3555959670825473	0.0	2.6255011067239304	1.3341182920533772	0.0	2.627798007443545	1.3128825911987736	0.0	2.631549434090782	1.3074971499436803	0.0	2.630982199543355	1.313770634180846	0.0	2.6245886056695316	1.3102993673134746	0.0	2.6284731282176117	1.3940772247409379	0.0	2.6322290697215758	1.4110470355935452	0.0	2.6330855329395937	1.3998081806211233	0.0	2.6183033361133754	1.391544084667187	0.0	2.609161336502366	1.3762705616264483	0.0	2.6476788448350757	1.3869675321164723	0.0	2.6374935614461443	1.3893452430364674	0.0	2.636069889007432	1.3758348773583773	0.0	2.647891711774192	1.3690546643623518	0.0
26	0.8666666666666667	2.615870974758732	1.3577041338826958	0.0	2.6084193436970975	1.3572113458861415	0.0	2.609466305705422	1.3338296660717261	0.0	2.6110212438711162	1.3116705644859947	0.0	2.6161084384851554	1.3085494014584824	0.0	2.6114262497648055	1.306288961369213	0.0	2.6114293079770663	1.3093542886175888	0.0	2.622500721044429	1.3563663431213	0.0	2.6253059846737288	1.3349678711908803	0.0	2.627437761143569	1.3137407534652805	0.0	2.6313487080132805	1.3083705212983179	0.0	2.63067567063234	1.314785249495762	0.0	2.6240626205283077	1.311171514815766	0.0	2.628306930684199	1.3948679933487367	0.0	2.6319346373388828	1.4118589297829476	0.0	2.632894604947557	1.4006424188716209	0.0	2.6182462598154226	1.3923108693757136	0.0	2.6090167736293544	1.3769182525512382	0.0	2.647607077307709	1.3868854953356011	0.0	2.6374109828098002	1.3901110158961836	0.0	2.6360681004977633	1.3764175194288542	0.0	2.647836232700526	1.3690393731095865	0.0
